<svg width="26" height="24" viewBox="0 0 26 24" fill="none" xmlns="http://www.w3.org/2000/svg">
<path fill-rule="evenodd" clip-rule="evenodd" d="M20.6942 3.94078C20.7114 3.97632 20.7261 4.0127 20.7392 4.04824C20.9284 4.51779 21.0962 5.23037 21.2338 6.11655H22.9393C22.9373 6.10231 22.9358 6.08641 22.9345 6.07157L22.9336 6.06199C22.7559 4.5988 22.5135 3.43982 22.231 2.73964C22.2155 2.69748 22.1983 2.6545 22.1786 2.61399C22.1614 2.57596 22.1451 2.54124 22.1271 2.50652L22.1217 2.49498C22.1161 2.48285 22.1103 2.47048 22.1041 2.45858C22.0665 2.385 22.0255 2.32052 21.9862 2.26431C21.9846 2.26018 21.9821 2.25687 21.9797 2.25439C21.9633 2.23042 21.9461 2.20727 21.9289 2.18661C21.7823 1.98325 21.6055 1.80634 21.4057 1.65672L21.4028 1.65506L21.4 1.65341L21.3887 1.64487L21.3887 1.64483C21.3658 1.62749 21.342 1.60936 21.3181 1.59306C21.2698 1.56 21.2174 1.52693 21.1576 1.49552C21.0111 1.41203 20.8547 1.34259 20.6909 1.29216C19.1311 0.723418 15.7323 0.329102 11.7874 0.329102C7.83677 0.329102 4.43308 0.725072 2.87656 1.29381C2.71854 1.34424 2.56788 1.4112 2.42623 1.49056C2.35909 1.5261 2.30014 1.56248 2.24856 1.59968C2.24493 1.60177 2.24162 1.6042 2.23844 1.60654L2.233 1.61042C2.20844 1.62778 2.18469 1.64514 2.16258 1.66333C1.96935 1.80882 1.7974 1.98159 1.65412 2.17751C1.56077 2.28746 1.47071 2.44452 1.3831 2.64375C1.37636 2.66211 1.36852 2.68047 1.36048 2.69928L1.36048 2.69929L1.35526 2.71153C0.751814 4.17968 0.325226 7.74176 0.325226 11.9056C0.325226 16.0894 0.755908 19.6655 1.36345 21.1204C1.36672 21.1262 1.37 21.1336 1.37245 21.1394C1.4658 21.361 1.56487 21.5313 1.66558 21.6462C1.80314 21.8305 1.96444 21.9942 2.14703 22.1322C2.25429 22.2281 2.41149 22.3216 2.61455 22.4108C2.64157 22.4241 2.67023 22.4365 2.69971 22.4489C3.21882 22.6638 3.99585 22.8572 4.96611 23.0143C5.67763 23.1309 7.88508 23.3954 9.05022 23.4574C9.6996 23.4916 11.015 23.4778 12.0963 23.4666H12.0963H12.0964L12.0967 23.4666C12.5587 23.4618 12.9778 23.4574 13.2842 23.4574C14.1121 23.4574 14.1837 23.4511 14.4735 23.4256C14.6165 23.413 14.8126 23.3957 15.1788 23.3722C17.7441 23.2086 19.8377 22.8738 20.8645 22.4538L20.9064 22.4361C20.9301 22.4261 20.9534 22.4163 20.9767 22.4059C21.1658 22.3199 21.3165 22.2298 21.4213 22.1389C21.6088 21.9967 21.7766 21.828 21.9174 21.6379C22.0116 21.5288 22.1033 21.3701 22.1901 21.17C22.2016 21.1444 22.213 21.1179 22.2229 21.0923C22.5111 20.388 22.7583 19.2084 22.9377 17.7146C22.9393 17.7063 22.9401 17.698 22.9409 17.6898H21.2346C21.0954 18.5892 20.9251 19.3092 20.7327 19.7787C20.7237 19.8019 20.7138 19.8242 20.7048 19.8457C20.6295 20.0177 20.5517 20.1532 20.4707 20.2475C20.3495 20.4103 20.2062 20.555 20.0449 20.6757C19.9548 20.755 19.8263 20.8319 19.6633 20.9055C19.6322 20.9195 19.6011 20.9328 19.5675 20.946C18.6882 21.3072 16.8934 21.5941 14.6949 21.7338C14.3862 21.7537 14.2184 21.7682 14.0963 21.7788C13.8424 21.8008 13.7859 21.8057 13.0705 21.8057C12.8077 21.8057 12.4481 21.8096 12.052 21.8138C11.125 21.8238 9.99778 21.8358 9.44078 21.8057C8.44268 21.7536 6.55046 21.5271 5.94128 21.4271C5.10858 21.2915 4.4429 21.1262 3.9983 20.9427L3.98726 20.938C3.96578 20.929 3.9449 20.9202 3.92461 20.9096C3.75103 20.8336 3.61675 20.7534 3.52423 20.6707C3.36784 20.5525 3.22946 20.412 3.11156 20.2541C3.02558 20.1557 2.94043 20.0102 2.86101 19.8201C2.85938 19.8172 2.85795 19.8143 2.85662 19.8116L2.85661 19.8116L2.85446 19.8073L2.85282 19.8044C2.33207 18.5561 1.9628 15.4917 1.9628 11.9048C1.9628 8.33613 2.32798 5.28327 2.84545 4.0251C2.85446 4.00443 2.86265 3.98542 2.87001 3.9664C2.94452 3.79529 3.02149 3.66054 3.10173 3.5663C3.22455 3.39849 3.37193 3.25134 3.53733 3.12652C3.55698 3.11081 3.57745 3.09593 3.59792 3.08105C3.60201 3.07774 3.60692 3.07444 3.61102 3.07196C3.65605 3.03972 3.706 3.00913 3.76413 2.97772C3.88531 2.90993 4.01468 2.85289 4.14978 2.80991C5.48358 2.32218 8.40092 1.98242 11.7882 1.98242C15.169 1.98242 18.0814 2.32052 19.4193 2.80743C19.5602 2.85124 19.6936 2.91076 19.8189 2.98185C19.8705 3.00913 19.9155 3.03807 19.9565 3.06617C19.9802 3.0827 20.0048 3.10089 20.0269 3.11742C20.0277 3.11825 20.0301 3.1199 20.0318 3.12073C20.2029 3.24804 20.3544 3.40014 20.4805 3.57457C20.4944 3.59193 20.51 3.61259 20.5239 3.63243C20.5263 3.63491 20.528 3.63739 20.5296 3.6407C20.5632 3.68947 20.5976 3.74486 20.6303 3.80769L20.6304 3.80775L20.6305 3.80799C20.637 3.82114 20.6443 3.83589 20.65 3.84902C20.6655 3.87878 20.6794 3.90854 20.6942 3.94078ZM21.511 15.0412C21.5067 15.0969 21.5023 15.1528 21.4982 15.2098H23.1563C23.2023 14.4235 23.2328 13.5927 23.2447 12.7302H23.2512H25.7075V11.0768H23.2512H23.2447C23.2332 10.2383 23.2042 9.42975 23.1604 8.66348L23.1555 8.59652H21.4974C21.5025 8.67025 21.508 8.74242 21.5136 8.81473L21.5136 8.81569C21.5214 8.91737 21.5292 9.01936 21.5359 9.12641C21.5715 9.74698 21.5955 10.4003 21.6063 11.0768H19.1572V12.7302H21.6063C21.5951 13.4366 21.5694 14.1177 21.531 14.7626C21.5254 14.8583 21.5183 14.9493 21.5111 15.0405L21.5111 15.0406L21.5111 15.0408L21.511 15.0412ZM9.46256 7.8827V15.8806H8.10419V9.70466L6.83835 11.0596L6.04985 10.2089L8.27859 7.8827H9.46256ZM13.7436 14.7775C12.8609 14.7775 12.1412 14.3459 12.1412 13.6507C12.1412 12.8232 13.2556 12.4512 13.7436 12.3909C14.2193 12.4512 15.3337 12.8232 15.3337 13.6507C15.3337 14.3459 14.6025 14.7775 13.7436 14.7775ZM13.7436 11.2038C13.267 11.1203 12.2689 10.8326 12.2689 10.0771C12.2689 9.405 12.8961 9.00903 13.7436 9.00903C14.5673 9.00903 15.2068 9.405 15.2068 10.0771C15.2068 10.8326 14.2193 11.1203 13.7436 11.2038ZM13.7436 16.0249C15.3222 16.0249 16.7035 15.2577 16.7035 13.8301C16.7035 12.8108 15.9027 12.0792 14.9628 11.7552C15.8331 11.4675 16.588 10.8806 16.588 9.86131C16.588 8.38655 15.102 7.76242 13.7436 7.76242C12.3623 7.76242 10.8991 8.38655 10.8991 9.86131C10.8991 10.8806 11.6426 11.4675 12.5129 11.7552C11.573 12.0792 10.7714 12.8108 10.7714 13.8301C10.7714 15.2693 12.1535 16.0249 13.7436 16.0249Z" fill="black" fill-opacity="0.2"/>
</svg>
