<svg width="16" height="16" viewBox="0 0 16 16" fill="none" xmlns="http://www.w3.org/2000/svg">
<path fill-rule="evenodd" clip-rule="evenodd" d="M5.28125 1.55469C6.14584 1.18489 7.05208 1 8 1C8.94792 1 9.85416 1.18489 10.7188 1.55469C11.5833 1.92448 12.3281 2.42187 12.9531 3.04688C13.5781 3.67188 14.0755 4.41666 14.4453 5.28125C14.8151 6.14584 15 7.05208 15 8C15 8.94792 14.8151 9.85416 14.4453 10.7188C14.0755 11.5833 13.5781 12.3281 12.9531 12.9531C12.3281 13.5781 11.5833 14.0755 10.7188 14.4453C9.85416 14.8151 8.94792 15 8 15C7.05208 15 6.14584 14.8151 5.28125 14.4453C4.41666 14.0755 3.67188 13.5781 3.04688 12.9531C2.42187 12.3281 1.92448 11.5833 1.55469 10.7188C1.18489 9.85416 1 8.94792 1 8C1 7.05208 1.18489 6.14584 1.55469 5.28125C1.92448 4.41666 2.42187 3.67188 3.04688 3.04688C3.67188 2.42187 4.41666 1.92448 5.28125 1.55469ZM10.8203 2.70312C9.92968 2.23437 8.98959 2 8 2C7.01041 2 6.07032 2.23437 5.17969 2.70312L6.69531 4.21875C7.1224 4.07292 7.55729 4 8 4C8.44271 4 8.8776 4.07292 9.30469 4.21875L10.8203 2.70312ZM2.70312 10.8203L4.21875 9.30469C4.07292 8.8776 4 8.44271 4 8C4 7.55729 4.07292 7.1224 4.21875 6.69531L2.70312 5.17969C2.23437 6.07032 2 7.01041 2 8C2 8.98959 2.23437 9.92968 2.70312 10.8203ZM5.17969 13.2969C6.07032 13.7656 7.01041 14 8 14C8.98959 14 9.92968 13.7656 10.8203 13.2969L9.30469 11.7812C8.8776 11.9271 8.44271 12 8 12C7.55729 12 7.1224 11.9271 6.69531 11.7812L5.17969 13.2969ZM5.875 10.125C6.46354 10.7083 7.17187 11 8 11C8.82813 11 9.53515 10.707 10.1211 10.1211C10.707 9.53515 11 8.82813 11 8C11 7.17187 10.707 6.46485 10.1211 5.87891C9.53515 5.29297 8.82813 5 8 5C7.17187 5 6.46485 5.29297 5.87891 5.87891C5.29297 6.46485 5 7.17187 5 8C5 8.82813 5.29166 9.53646 5.875 10.125ZM11.7812 9.30469L13.2969 10.8203C13.7656 9.92968 14 8.98959 14 8C14 7.01041 13.7656 6.07032 13.2969 5.17969L11.7812 6.69531C11.9271 7.1224 12 7.55729 12 8C12 8.44271 11.9271 8.8776 11.7812 9.30469Z" fill="black" fill-opacity="0.4"/>
</svg>
