<svg width="16" height="16" viewBox="0 0 16 16" fill="none" xmlns="http://www.w3.org/2000/svg">
<path fill-rule="evenodd" clip-rule="evenodd" d="M8 2.3125C9.29427 2.3125 10.4883 2.4401 11.582 2.69531C12.7487 2.95052 13.6693 3.33333 14.3438 3.84375C15.0729 4.39062 15.4375 5.04687 15.4375 5.81249V9.74998C15.4375 10.5703 15.0729 11.2903 14.3438 11.9101C13.6693 12.4752 12.7487 12.9219 11.582 13.25C10.4701 13.5416 9.27604 13.6875 8 13.6875C6.72396 13.6875 5.52995 13.5416 4.41797 13.25C3.2513 12.9219 2.33073 12.4752 1.65625 11.9101C0.927083 11.2903 0.5625 10.5703 0.5625 9.74998V5.81249C0.5625 5.04687 0.927083 4.39062 1.65625 3.84375C2.33073 3.33333 3.2513 2.95052 4.41797 2.69531C5.51172 2.4401 6.70573 2.3125 8 2.3125ZM14.125 9.74998V7.9453C13.2317 8.52863 11.9648 8.92967 10.3242 9.14842C8.77472 9.36717 7.22524 9.36717 5.67577 9.14842C4.03515 8.92967 2.76822 8.52863 1.875 7.9453V9.74998C1.875 10.2239 2.14843 10.6614 2.69531 11.0625C3.24218 11.4635 3.98502 11.7825 4.92382 12.0195C5.86262 12.2565 6.88801 12.375 7.99998 12.375C9.11196 12.375 10.1373 12.2565 11.0761 12.0195C12.0149 11.7825 12.7578 11.4635 13.3047 11.0625C13.8515 10.6614 14.125 10.2239 14.125 9.74998ZM7.99998 7.99999C9.11196 7.99999 10.1373 7.89973 11.0761 7.69921C12.0149 7.49869 12.7578 7.23436 13.3047 6.90624C13.8515 6.57811 14.125 6.21353 14.125 5.81249C14.125 5.41145 13.8515 5.04687 13.3047 4.71874C12.7578 4.39062 12.0149 4.1263 11.0761 3.92578C10.1373 3.72526 9.11196 3.625 7.99998 3.625C6.88801 3.625 5.86262 3.72526 4.92382 3.92578C3.98502 4.1263 3.24218 4.39062 2.69531 4.71874C2.14843 5.04687 1.875 5.41145 1.875 5.81249C1.875 6.21353 2.14843 6.57811 2.69531 6.90624C3.24218 7.23436 3.98502 7.49869 4.92382 7.69921C5.86262 7.89973 6.88801 7.99999 7.99998 7.99999Z" fill="#3498DB"/>
</svg>
