<svg width="32" height="32" viewBox="0 0 32 32" fill="none" xmlns="http://www.w3.org/2000/svg">
<g opacity="0.4">
<path fill-rule="evenodd" clip-rule="evenodd" d="M5.01068 0.00012207V19.3409H15.7224V12.9637L13.6759 14.1641C13.8764 14.7699 13.6342 15.4529 13.062 15.7884C12.4021 16.1757 11.556 15.9534 11.17 15.2941C10.7834 14.6366 11.0044 13.788 11.6637 13.402C12.2278 13.0721 12.9288 13.1854 13.3628 13.6386L15.431 12.4246L13.3715 11.2423C12.9425 11.7154 12.2303 11.8449 11.6537 11.515C10.9913 11.1364 10.7622 10.2897 11.1426 9.62726C11.5236 8.96483 12.3691 8.73447 13.0309 9.11736C13.5981 9.44111 13.8465 10.106 13.6703 10.7075L15.7224 11.8848V9.51893C15.1135 9.37387 14.6584 8.82786 14.6584 8.17289C14.6584 7.40897 15.2772 6.78949 16.0424 6.78949C16.8063 6.78949 17.4252 7.40897 17.4252 8.17289C17.4252 8.83719 16.9576 9.39317 16.3338 9.52454V11.8966L18.3989 10.6857C18.2165 10.0867 18.4593 9.4187 19.0227 9.08934C19.6814 8.70022 20.5294 8.92373 20.9154 9.58181C21.3027 10.2424 21.081 11.0885 20.4211 11.4757C19.8483 11.8119 19.1348 11.6874 18.7027 11.2167L16.6525 12.4196L18.7351 13.6137C19.1616 13.1574 19.8626 13.0366 20.431 13.3628C21.0935 13.7414 21.3226 14.5887 20.9403 15.2505C20.5624 15.9123 19.7157 16.1421 19.0539 15.7623C18.4767 15.4298 18.2289 14.7493 18.4238 14.1411L16.444 13.0048V19.3409H26.8767V0.00012207H5.01068Z" fill="#1D1D1B"/>
<mask id="mask0" mask-type="alpha" maskUnits="userSpaceOnUse" x="3" y="23" width="5" height="7">
<path fill-rule="evenodd" clip-rule="evenodd" d="M3.00003 23.844H7.20863V29.8401H3.00003V23.844Z" fill="white"/>
</mask>
<g mask="url(#mask0)">
<path fill-rule="evenodd" clip-rule="evenodd" d="M5.13291 23.844C5.88251 23.844 6.57421 24.0171 7.15073 24.4205L6.86247 25.1122H6.80519C6.45903 24.8825 5.88251 24.6515 5.19081 24.6515C4.49849 24.6515 4.15295 24.9977 4.15295 25.459C4.15295 26.5541 7.20863 26.1501 7.20863 28.2258C7.20863 29.0912 6.45903 29.8402 5.01773 29.8402C4.26875 29.8402 3.57643 29.6677 2.99991 29.2637L3.28755 28.5726H3.34545C3.69223 28.8023 4.26875 29.0333 4.96045 29.0333C5.70943 29.0333 6.05559 28.6871 6.05559 28.2258C6.05559 27.13 2.99991 27.5341 2.99991 25.459C2.99991 24.5936 3.74951 23.844 5.13291 23.844Z" fill="#1D1D1B"/>
</g>
<mask id="mask1" mask-type="alpha" maskUnits="userSpaceOnUse" x="8" y="23" width="5" height="7">
<path fill-rule="evenodd" clip-rule="evenodd" d="M8.15079 23.844H12.5326V29.8401H8.15079V23.844Z" fill="white"/>
</mask>
<g mask="url(#mask1)">
<path fill-rule="evenodd" clip-rule="evenodd" d="M10.572 23.844C11.2644 23.844 11.9561 24.0171 12.4753 24.4205L12.1871 25.1122H12.1292C11.8403 24.8825 11.2644 24.6515 10.803 24.6515C9.88097 24.6515 9.30383 25.228 9.30383 26.8418C9.30383 28.4568 9.88097 29.0333 10.7451 29.0333C11.2644 29.0333 11.8403 28.8023 12.1871 28.5726H12.245L12.5326 29.2637C11.9561 29.6677 11.2644 29.8402 10.5148 29.8402C9.07347 29.8402 8.15079 28.9175 8.15079 26.8418C8.15079 24.7667 9.07347 23.844 10.572 23.844Z" fill="#1D1D1B"/>
</g>
<path fill-rule="evenodd" clip-rule="evenodd" d="M16.6891 27.0725H15.8816C14.9023 27.0725 14.4123 27.4766 14.4123 28.0531C14.4123 28.6296 14.9023 29.0331 15.4788 29.0331C16.0547 29.0331 16.5167 28.5723 16.6891 28.2262V27.0725ZM13.9796 25.1126H13.9223L13.6341 24.4203C14.2106 24.0754 14.9023 23.8438 15.6519 23.8438C17.0932 23.8438 17.8428 24.594 17.8428 26.2656V29.7254H17.0932L16.9201 29.0331H16.8628C16.574 29.3786 16.1132 29.8399 15.1327 29.8399C14.0369 29.8399 13.3458 29.1489 13.3458 28.0531C13.3458 26.9573 14.0369 26.2656 15.8816 26.2656H16.6891C16.6891 25.1126 16.2284 24.6513 15.4209 24.6513C14.9023 24.6513 14.3258 24.8822 13.9796 25.1126Z" fill="#1D1D1B"/>
<mask id="mask2" mask-type="alpha" maskUnits="userSpaceOnUse" x="24" y="23" width="6" height="7">
<path fill-rule="evenodd" clip-rule="evenodd" d="M24.7142 23.8438H29.2112V29.8399H24.7142V23.8438Z" fill="white"/>
</mask>
<g mask="url(#mask2)">
<path fill-rule="evenodd" clip-rule="evenodd" d="M28.0576 27.0725H27.2501C26.2707 27.0725 25.7807 27.4766 25.7807 28.0531C25.7807 28.6296 26.2707 29.0331 26.8472 29.0331C27.4231 29.0331 27.8851 28.5723 28.0576 28.2262V27.0725ZM25.348 25.1126H25.2908L25.0025 24.4203C25.579 24.0754 26.2707 23.8438 27.0203 23.8438C28.4616 23.8438 29.2112 24.594 29.2112 26.2656V29.7254H28.4616L28.2885 29.0331H28.2313C27.9424 29.3786 27.4817 29.8399 26.5011 29.8399C25.4053 29.8399 24.7142 29.1489 24.7142 28.0531C24.7142 26.9573 25.4053 26.2656 27.2501 26.2656H28.0576C28.0576 25.1126 27.5968 24.6513 26.7893 24.6513C26.2707 24.6513 25.6942 24.8822 25.348 25.1126Z" fill="#1D1D1B"/>
</g>
<mask id="mask3" mask-type="alpha" maskUnits="userSpaceOnUse" x="18" y="21" width="6" height="9">
<path fill-rule="evenodd" clip-rule="evenodd" d="M18.9383 21.9607H23.6663V29.84H18.9383V21.9607Z" fill="white"/>
</mask>
<g mask="url(#mask3)">
<path fill-rule="evenodd" clip-rule="evenodd" d="M22.5126 28.2258C22.3401 28.5726 21.8782 29.0333 21.3589 29.0333C20.6679 29.0333 20.0913 28.4568 20.0913 26.8418C20.0913 25.2281 20.6679 24.6515 21.4175 24.6515C21.8209 24.6515 22.2237 24.7667 22.5126 24.9971V28.2258ZM23.5778 21.9607L22.601 22.216C22.5518 22.216 22.5126 22.2552 22.5126 22.3037V24.1908C22.1664 23.9592 21.7051 23.844 21.1286 23.844C19.9183 23.844 18.9383 24.8246 18.9383 26.8418C18.9383 28.9175 19.8604 29.8402 21.0713 29.8402C21.9361 29.8402 22.3974 29.3789 22.6857 29.0333H22.743L22.916 29.725H23.6663V22.0491C23.6663 22.0005 23.6258 21.9607 23.5778 21.9607Z" fill="#1D1D1B"/>
</g>
</g>
</svg>
