<svg width="16" height="16" viewBox="0 0 16 16" fill="none" xmlns="http://www.w3.org/2000/svg">
<path fill-rule="evenodd" clip-rule="evenodd" d="M9.96875 9.97656C10.6563 9.28906 11 8.46355 11 7.5C11 6.53645 10.6576 5.71224 9.97266 5.02734C9.28776 4.34244 8.46355 4 7.5 4C6.53645 4 5.71224 4.34244 5.02734 5.02734C4.34244 5.71224 4 6.53645 4 7.5C4 8.46355 4.34244 9.28776 5.02734 9.97266C5.71224 10.6576 6.53645 11 7.5 11C8.46355 11 9.28646 10.6589 9.96875 9.97656ZM15 14C15 14.2708 14.901 14.5052 14.7031 14.7031C14.5052 14.901 14.2708 15 14 15C13.7187 15 13.4844 14.901 13.2969 14.7031L10.6172 12.0312C9.68489 12.6771 8.64584 13 7.5 13C6.7552 13 6.04297 12.8555 5.36328 12.5664C4.68359 12.2773 4.09766 11.8867 3.60547 11.3945C3.11328 10.9023 2.72266 10.3164 2.43359 9.63672C2.14453 8.95703 2 8.2448 2 7.5C2 6.7552 2.14453 6.04297 2.43359 5.36328C2.72266 4.68359 3.11328 4.09766 3.60547 3.60547C4.09766 3.11328 4.68359 2.72266 5.36328 2.43359C6.04297 2.14453 6.7552 2 7.5 2C8.2448 2 8.95703 2.14453 9.63672 2.43359C10.3164 2.72266 10.9023 3.11328 11.3945 3.60547C11.8867 4.09766 12.2773 4.68359 12.5664 5.36328C12.8555 6.04297 13 6.7552 13 7.5C13 8.64584 12.6771 9.68489 12.0312 10.6172L14.7109 13.2969C14.9036 13.4896 15 13.724 15 14Z" fill="black" fill-opacity="0.4"/>
</svg>
