<svg width="16" height="16" viewBox="0 0 16 16" fill="none" xmlns="http://www.w3.org/2000/svg">
<path fill-rule="evenodd" clip-rule="evenodd" d="M14.4531 5.89454C14.8359 7.0612 14.8952 8.23242 14.6308 9.4082C14.3665 10.584 13.8379 11.623 13.0449 12.5254C12.2519 13.4277 11.2721 14.0703 10.1055 14.4531C9.41276 14.6719 8.71094 14.7812 8 14.7812C7.05209 14.7812 6.14063 14.5898 5.26563 14.207C4.39064 13.8242 3.62957 13.2773 2.98244 12.5664C2.3353 11.8555 1.85679 11.0351 1.54689 10.1055C1.16408 8.9388 1.10484 7.76758 1.36916 6.5918C1.63348 5.41602 2.16213 4.37696 2.95509 3.47462C3.74806 2.57228 4.72787 1.9297 5.89454 1.54689C6.58724 1.32814 7.28907 1.21877 8 1.21877C8.94792 1.21877 9.85937 1.41017 10.7344 1.79298C11.6094 2.17579 12.3704 2.72267 13.0176 3.4336C13.6647 4.14454 14.1432 4.96485 14.4531 5.89454ZM12.4023 11.1992C12.6211 10.9075 12.776 10.6706 12.8672 10.4883C13.25 9.72265 13.4505 8.91146 13.4687 8.05469L12.4023 7.04297L10.4609 7.64453L9.77734 9.72265L10.9805 11.3633L12.4023 11.1992ZM12.4023 4.77344C11.7279 3.82553 10.8346 3.16928 9.72265 2.8047L8.4375 3.51563V5.53907L10.1875 6.82422L12.1289 6.22266L12.4023 4.77344ZM6.27735 2.8047C5.1836 3.16928 4.29038 3.82553 3.59767 4.77344L3.87111 6.22266L5.81251 6.82422L7.5625 5.53907V3.51563L6.27735 2.8047ZM5.01954 11.3633L6.22266 9.69531L5.53907 7.64453L3.59767 7.04297L2.53126 8.05469C2.54949 9.20312 2.89585 10.2513 3.57032 11.1992L5.01954 11.3633ZM6.33204 13.1953C7.44401 13.5599 8.53776 13.569 9.61328 13.2226L9.66797 13.1953L10.2695 11.8828L9.06641 10.2148H6.90625L5.73048 11.8828L6.33204 13.1953Z" fill="black" fill-opacity="0.8"/>
</svg>
