<svg width="112" height="26" viewBox="0 0 112 26" fill="none" xmlns="http://www.w3.org/2000/svg">
<path d="M22.1006 22.6353C22.2983 22.4884 22.4738 22.3136 22.6217 22.1165C22.7396 21.9688 22.8354 21.8048 22.9061 21.6295C22.9194 21.6038 22.9308 21.5772 22.9403 21.5499C23.5729 20.0207 24.0189 16.3297 24.0189 12.0151C24.0189 7.70061 23.5774 4.05056 22.9494 2.50088C22.9342 2.4584 22.916 2.41516 22.8947 2.37117L22.8401 2.25966C22.8327 2.24253 22.8243 2.22582 22.8151 2.2096C22.7789 2.13976 22.7387 2.07213 22.6945 2.00707C22.6789 1.98224 22.6614 1.95865 22.6421 1.93653C22.4883 1.72622 22.3034 1.54053 22.0937 1.38584L22.0095 1.32212C21.9553 1.28497 21.8991 1.25079 21.8411 1.21972C21.686 1.13275 21.5219 1.06256 21.3519 1.01036C19.6998 0.409607 16.1362 0 12.0038 0C7.87128 0 4.29404 0.409607 2.67382 1.00126C2.50984 1.05323 2.35132 1.12106 2.2005 1.20379C2.13691 1.23811 2.07536 1.2761 2.01618 1.31757H2.00025L1.92515 1.37218C1.72101 1.5262 1.54146 1.71035 1.39266 1.91832C1.27516 2.06463 1.17935 2.22711 1.10821 2.40075L1.07863 2.47129C0.446016 3.99594 0 7.70516 0 12.0151C0 16.3251 0.455119 20.0685 1.08773 21.5726V21.5931C1.16155 21.7851 1.26439 21.9647 1.39266 22.1256C1.53693 22.3165 1.70694 22.4865 1.89784 22.6308C2.04593 22.7505 2.21076 22.8479 2.3871 22.9198L2.47584 22.9585C3.24548 23.2378 4.04262 23.4346 4.85384 23.5456C5.32261 23.6207 6.2192 23.0176 6.77444 23.0768C7.55269 23.1633 8.22854 23.9574 9.13423 24.003C10.1059 24.0553 12.4976 24.003 13.5716 24.003C14.235 24.0135 14.8983 23.9846 15.5582 23.9165C18.248 23.7458 20.4417 23.3999 21.518 22.963L21.6341 22.9129C21.802 22.8431 21.9591 22.7496 22.1006 22.6353Z" fill="url(#paint0_radial)"/>
<path d="M13.2908 17.6959C13.9098 16.4694 19.9788 7.86079 19.9788 7.86079C20.1586 7.08026 19.5237 6.15637 18.7454 5.99936C17.8056 5.81048 17.1252 6.63197 17.0023 7.30555C16.8794 7.97912 16.1353 14.8969 12.2668 14.8673L10.5942 15.079C10.576 15.0175 4.87113 6.65928 4.87113 6.65928C4.71992 6.30427 4.4334 6.0242 4.07504 5.88112C3.71667 5.73803 3.31605 5.74373 2.96191 5.89696C2.22462 6.21326 1.46002 7.32148 2.27923 8.42741C3.94878 10.4296 5.39831 12.6054 6.60286 14.9174C8.45291 18.4013 7.91815 22.882 4.75052 23.5647C5.27391 23.6534 5.82005 23.7035 6.45039 23.7717C6.73939 23.8036 7.68149 23.8172 7.99324 23.8446C10.0413 23.9879 9.32674 22.9685 9.32674 22.9685C10.4259 22.8729 12.6081 19.0772 13.2908 17.6959Z" fill="#640C00"/>
<path d="M10.8006 5.79151C9.43127 5.91317 8.27018 6.84811 7.85921 8.16001C7.44825 9.47192 7.86841 10.9022 8.92363 11.7834C9.97885 12.6646 11.4611 12.823 12.6787 12.1847C13.8963 11.5464 14.6093 10.2372 14.4848 8.86811C14.3164 7.00149 12.6674 5.62439 10.8006 5.79151Z" fill="#640C00"/>
<path fill-rule="evenodd" clip-rule="evenodd" d="M15.4691 10.4786C14.9418 11.748 13.7015 12.5746 12.327 12.5728C11.4265 12.5722 10.5632 12.2139 9.92688 11.5768C9.29058 10.9396 8.93345 10.0758 8.93406 9.17533C8.93406 7.80077 9.76232 6.56165 11.0324 6.03605C12.3025 5.51046 13.7642 5.80196 14.7355 6.77457C15.7068 7.74719 15.9964 9.20924 15.4691 10.4786ZM18.0888 7.09771C18.4483 6.22161 19.1446 5.77559 19.9889 6.09418C20.8946 6.42641 21.195 7.27066 20.8604 8.02843C20.8604 8.02843 17.2923 17.3424 13.3351 22.4193C12.0812 24.0122 9.75782 25.6301 7.38438 25.8327C6.73487 25.9247 6.07601 25.93 5.42509 25.8486C4.46252 25.7303 4.20538 25.0362 4.16897 24.465C4.24861 24.8246 4.84254 25.6711 6.16694 23.9416C7.33058 22.4543 7.91009 20.5928 7.79626 18.7078C7.79626 16.2319 6.34671 14.0292 6.34671 14.0292L3.038 8.08987C2.58288 7.25018 3.24508 6.25347 4.0074 6.00315C4.76972 5.75284 5.39551 6.24892 5.76871 7.00441L9.70776 13.8084C9.7187 13.8292 9.73249 13.8484 9.74872 13.8653C10.3088 14.6107 11.1875 15.0483 12.1199 15.0464C13.8903 15.0464 15.0622 13.9427 15.6425 12.723C16.5983 10.7205 18.0888 7.09771 18.0888 7.09771Z" fill="url(#paint1_linear)"/>
<path d="M4.13753 23.4216C4.11076 23.8017 4.12833 24.1835 4.18987 24.5594C4.28544 24.9258 4.58323 25.0501 4.9044 25.0146C5.22558 24.979 5.48372 24.7859 5.85403 24.3751C6.22434 23.9643 6.78553 22.9706 6.78553 22.9706C6.78553 22.9706 4.88004 23.5286 4.64843 23.4985C4.41682 23.4684 4.13753 23.4216 4.13753 23.4216Z" fill="#640C00"/>
<path fill-rule="evenodd" clip-rule="evenodd" d="M32.4203 17.9888H35.1362V4.56024H32.4203V17.9888Z" fill="#1D1D1B"/>
<path fill-rule="evenodd" clip-rule="evenodd" d="M43.0774 10.8473C42.7611 10.5431 42.2736 10.3912 41.6153 10.3912C40.9441 10.3912 40.4155 10.5366 40.0291 10.8283C39.6427 11.1196 39.3675 11.5185 39.2024 12.0245H43.5899C43.5653 11.5439 43.3937 11.151 43.0774 10.8473ZM39.9538 15.3291C40.4022 15.6716 41.0327 15.8424 41.8429 15.8424C43.046 15.8424 44.0972 15.5382 44.996 14.9306L46.1539 16.9056C45.4956 17.3742 44.8063 17.7102 44.0843 17.9125C43.3623 18.1155 42.5649 18.2163 41.6911 18.2163C40.8425 18.2163 40.0895 18.0958 39.4312 17.8557C38.7729 17.6155 38.2217 17.2731 37.7781 16.8303C37.3357 16.3867 36.9969 15.8549 36.7628 15.2344C36.5283 14.614 36.4107 13.9238 36.4107 13.1639C36.4107 12.4556 36.5348 11.7904 36.7809 11.17C37.0279 10.5499 37.3833 10.0117 37.845 9.55557C38.3067 9.09949 38.8635 8.7389 39.5166 8.47258C40.1681 8.20707 40.8933 8.07372 41.6911 8.07372C42.3748 8.07372 43.0041 8.18532 43.5814 8.40611C44.1568 8.6281 44.6507 8.94196 45.0621 9.34647C45.4743 9.75178 45.7938 10.2365 46.0214 10.7997C46.249 11.363 46.3635 11.9935 46.3635 12.6897C46.3635 12.9178 46.3473 13.1458 46.3159 13.3734C46.2845 13.6011 46.2434 13.8162 46.1918 14.0189H39.127C39.2281 14.5507 39.5033 14.9874 39.9538 15.3291Z" fill="#1D1D1B"/>
<path fill-rule="evenodd" clip-rule="evenodd" d="M64.9962 14.2093C64.9962 14.6517 64.7943 15.0409 64.3886 15.3765C63.9837 15.7125 63.3947 15.8805 62.6231 15.8805C62.1421 15.8805 61.7899 15.7883 61.5687 15.6046C61.3463 15.4216 61.2355 15.1714 61.2355 14.8552C61.2355 14.526 61.379 14.2633 61.663 14.0667C61.9487 13.8701 62.4136 13.7722 63.059 13.7722C63.7694 13.7722 64.4144 13.8419 64.9962 13.9813V14.2093ZM68.5477 15.8427C68.472 15.8805 68.3644 15.8987 68.225 15.8987C67.8459 15.8987 67.6561 15.6465 67.6561 15.1396V12.2146C67.6561 11.5941 67.5699 11.0305 67.3991 10.5244C67.229 10.0176 66.9623 9.58446 66.6017 9.22306C66.2403 8.86247 65.7782 8.58084 65.215 8.37738C64.6521 8.17512 63.9837 8.07359 63.2113 8.07359C62.4644 8.07359 61.746 8.16304 61.0554 8.33991C60.3657 8.51759 59.6783 8.80888 58.995 9.2142L60.0583 11.1892C61.0587 10.7077 62.103 10.4676 63.1928 10.4676C63.8004 10.4676 64.2492 10.5845 64.5409 10.8185C64.8322 11.0526 64.9776 11.3794 64.9776 11.7976V12.1014C64.6864 12.0244 64.3801 11.962 64.0562 11.9108C63.7335 11.86 63.3761 11.835 62.9837 11.835C62.2996 11.835 61.6819 11.9011 61.132 12.0345C60.5812 12.1678 60.1054 12.3669 59.7073 12.6328C59.3081 12.8987 59.0007 13.2275 58.7859 13.6199C58.5712 14.0127 58.4632 14.4688 58.4632 14.9877C58.4632 16.0389 58.7956 16.8394 59.4604 17.3906C60.1251 17.9414 61.0208 18.2161 62.1473 18.2161C62.8951 18.2161 63.547 18.0957 64.1038 17.8555C64.6614 17.6154 65.1235 17.229 65.4905 16.6976C65.5917 17.2411 65.8261 17.6275 66.1928 17.8555C66.5606 18.0836 67.0099 18.1972 67.5417 18.1972C67.7951 18.1972 68.0223 18.1787 68.225 18.1408C68.339 18.119 68.4405 18.084 68.5477 18.0546V15.8427Z" fill="#1D1D1B"/>
<mask id="mask0" mask-type="alpha" maskUnits="userSpaceOnUse" x="47" y="8" width="11" height="15">
<path fill-rule="evenodd" clip-rule="evenodd" d="M47.4487 8.07355H57.4015V22.6737H47.4487V8.07355Z" fill="white"/>
</mask>
<g mask="url(#mask0)">
<path fill-rule="evenodd" clip-rule="evenodd" d="M54.6658 14.5131C54.1977 15.3346 53.4507 15.7471 52.4257 15.7471C51.7416 15.7471 51.2029 15.5251 50.8113 15.0832C50.4185 14.6388 50.2223 13.9933 50.2223 13.1448C50.2223 12.3354 50.4821 11.6831 51.0003 11.1888C51.5204 10.6948 52.2162 10.4474 53.0893 10.4474C53.3806 10.4474 53.6622 10.4668 53.9354 10.5046C54.2073 10.5425 54.4511 10.613 54.6658 10.7137V14.5131ZM57.3701 8.90553C56.7786 8.64204 56.1239 8.43656 55.4072 8.29272C54.6852 8.14607 53.9193 8.07355 53.1086 8.07355C52.3113 8.07355 51.5712 8.19401 50.8871 8.43414C50.2025 8.67548 49.605 9.02036 49.0926 9.46959C48.5789 9.91922 48.1776 10.4607 47.8859 11.0941C47.5946 11.7262 47.4487 12.4357 47.4487 13.2206C47.4487 14.0687 47.5696 14.8068 47.8105 15.4337C48.0511 16.0598 48.377 16.5787 48.788 16.9913C49.2005 17.4026 49.6772 17.7105 50.2223 17.9127C50.7662 18.1154 51.3488 18.2157 51.9692 18.2157C52.5518 18.2157 53.0643 18.1432 53.5079 17.9977C53.9515 17.8527 54.3367 17.6391 54.6658 17.3611V18.3192C54.6658 18.953 54.3089 19.4453 53.8588 19.787C53.41 20.1286 52.7795 20.2999 51.9692 20.2999C51.2742 20.2999 50.6365 20.1863 50.043 19.9828L49.3879 22.2572C49.5015 22.297 51.2472 22.6737 52.1215 22.6737C52.9696 22.6737 53.7227 22.5533 54.381 22.3132C55.0405 22.0726 55.5905 21.7306 56.0341 21.2874C56.4777 20.8442 57.4015 19.9768 57.4015 17.7685V8.90553H57.3701Z" fill="#1D1D1B"/>
</g>
<mask id="mask1" mask-type="alpha" maskUnits="userSpaceOnUse" x="32" y="4" width="72" height="19">
<path fill-rule="evenodd" clip-rule="evenodd" d="M32.4203 22.6737H103.838V4.22745H32.4203V22.6737Z" fill="white"/>
</mask>
<g mask="url(#mask1)">
<path fill-rule="evenodd" clip-rule="evenodd" d="M69.9534 17.9993H72.7387V4.22705H69.9534V17.9993Z" fill="#1D1D1B"/>
<path fill-rule="evenodd" clip-rule="evenodd" d="M78.9337 15.7977C79.3362 15.7977 79.7194 15.7369 80.0824 15.614C80.4478 15.4895 80.7605 15.3054 81.0296 15.0568C81.2939 14.8118 81.5054 14.5096 81.6617 14.1527C81.8161 13.7945 81.895 13.3831 81.895 12.9154C81.895 12.0713 81.6718 11.4218 81.2226 10.967C80.7746 10.5113 80.1996 10.2853 79.499 10.2853C78.5635 10.2853 77.7911 10.5782 77.1799 11.1628V15.5451C77.7254 15.7147 78.31 15.7977 78.9337 15.7977ZM77.1799 8.64869C77.5558 8.38842 77.9672 8.18778 78.4071 8.04555C78.8499 7.90172 79.3362 7.83121 79.8692 7.83121C80.5578 7.83121 81.198 7.93838 81.7883 8.15273C82.3793 8.36666 82.8874 8.68495 83.3172 9.10719C83.7443 9.52822 84.0819 10.058 84.3305 10.6938C84.5775 11.3308 84.7004 12.0769 84.7004 12.9351C84.7004 13.7647 84.5485 14.5096 84.2419 15.1648C83.9365 15.8211 83.5187 16.3763 82.9861 16.8319C82.4526 17.2844 81.833 17.6329 81.1255 17.8742C80.4176 18.1144 79.6589 18.2352 78.8552 18.2352C78.078 18.2352 77.3217 18.1752 76.5953 18.0572C75.8693 17.9427 75.1352 17.7457 74.3951 17.4738V4.22729H77.1799V8.64869Z" fill="#1D1D1B"/>
<path fill-rule="evenodd" clip-rule="evenodd" d="M92.4784 10.6761C92.1524 10.3631 91.6528 10.2079 90.9764 10.2079C90.2898 10.2079 89.7475 10.3566 89.3491 10.6556C88.9554 10.9549 88.6738 11.363 88.5034 11.882H93.0034C92.9772 11.3892 92.8035 10.9867 92.4784 10.6761ZM89.2725 15.2716C89.7342 15.6233 90.3797 15.7977 91.2101 15.7977C92.4453 15.7977 93.5223 15.4847 94.4457 14.8638L95.6339 16.8896C94.9582 17.3686 94.2515 17.7135 93.5114 17.921C92.7701 18.1317 91.9518 18.2353 91.0541 18.2353C90.1855 18.2353 89.4131 18.1088 88.7383 17.8626C88.0618 17.6172 87.4974 17.2659 87.0425 16.811C86.5876 16.3574 86.2407 15.811 85.9998 15.1732C85.7589 14.5399 85.6392 13.8304 85.6392 13.0508C85.6392 12.324 85.7669 11.6435 86.0215 11.0057C86.2729 10.3691 86.6356 9.81672 87.1114 9.34896C87.5848 8.88281 88.1557 8.51375 88.8261 8.23938C89.4937 7.96823 90.2375 7.83084 91.0541 7.83084C91.7568 7.83084 92.403 7.94406 92.9933 8.17169C93.5847 8.39933 94.0908 8.72124 94.5126 9.13623C94.9369 9.55162 95.264 10.0476 95.4969 10.627C95.7322 11.2035 95.8486 11.851 95.8486 12.5645C95.8486 12.7978 95.8313 13.0318 95.7991 13.2655C95.7668 13.4996 95.7245 13.72 95.6717 13.9283H88.424C88.5288 14.4742 88.8116 14.9198 89.2725 15.2716Z" fill="#1D1D1B"/>
<path fill-rule="evenodd" clip-rule="evenodd" d="M102.903 15.1945C102.67 15.3488 102.413 15.4733 102.133 15.5652C101.853 15.657 101.546 15.6989 101.208 15.6989C100.793 15.6989 100.464 15.5914 100.225 15.3706C99.9848 15.1486 99.8651 14.8315 99.8651 14.4149V10.5378H103.158V8.06444H99.8651V5.45447H97.0787V8.06444H95.4514V8.36983C96.8921 9.40689 97.0787 11.3597 97.0787 11.9178C97.0787 12.4737 97.0843 14.5906 97.0843 14.5906C97.119 15.7815 97.4252 16.6788 98.0142 17.2787C98.6359 17.9153 99.519 18.2352 100.662 18.2352C101.286 18.2352 101.852 18.1619 102.358 18.0196C102.865 17.8774 103.357 17.6478 103.837 17.3379L102.903 15.1945Z" fill="#1D1D1B"/>
</g>
<defs>
<radialGradient id="paint0_radial" cx="0" cy="0" r="1" gradientUnits="userSpaceOnUse" gradientTransform="translate(12.0094 12.5371) scale(14.4244 14.4288)">
<stop stop-color="#E94E1B"/>
<stop offset="0.46" stop-color="#E9491A"/>
<stop offset="0.6" stop-color="#E73C19"/>
<stop offset="0.75" stop-color="#E62516"/>
<stop offset="1" stop-color="#E30613"/>
</radialGradient>
<linearGradient id="paint1_linear" x1="3.6658" y1="8.02356" x2="1.57555" y2="26.0779" gradientUnits="userSpaceOnUse">
<stop offset="0.31" stop-color="white"/>
<stop offset="0.47" stop-color="#FAFAFA"/>
<stop offset="0.64" stop-color="#EDEDED"/>
<stop offset="0.83" stop-color="#DADADA"/>
<stop offset="1" stop-color="#C6C6C6"/>
</linearGradient>
</defs>
</svg>
