<svg width="38" height="20" viewBox="0 0 38 20" fill="none" xmlns="http://www.w3.org/2000/svg">
<path fill-rule="evenodd" clip-rule="evenodd" d="M0.339844 0C1.39934 0 2.45874 0 3.51813 0C4.19438 0.901633 4.91565 1.80328 5.5919 2.72745C5.61441 2.72745 5.68206 2.70491 5.70457 2.70491C6.38082 1.80328 7.10219 0.901633 7.77834 0C8.83783 0 9.89723 0 10.9791 0C10.9791 1.55532 10.9791 3.0881 10.9791 4.64343C11.9259 3.0881 12.8952 1.53278 13.8419 0C18.7107 0 23.557 0 28.4258 0C28.4258 1.69057 28.4258 3.3586 28.4258 5.04916C28.9894 5.07171 29.5755 5.04916 30.139 5.07171C30.139 3.38113 30.139 1.69057 30.139 0C31.1758 0 32.2127 0 33.2721 0C33.2721 3.3586 33.2721 6.71722 33.2721 10.0758C32.2352 10.0758 31.1983 10.0758 30.1615 10.0758C30.1615 9.35446 30.1615 8.65569 30.1615 7.93442C28.5611 7.93442 26.9607 7.93442 25.3603 7.93442C25.3603 6.24381 25.3603 4.55327 25.3603 2.88524C24.7967 2.88524 24.2107 2.88524 23.6472 2.88524C23.6472 5.27457 23.6472 7.68646 23.6472 10.0758C22.6103 10.0758 21.5509 10.0758 20.514 10.0758C20.4915 9.89551 20.4915 9.73771 20.4915 9.55739C20.4915 8.88114 20.4689 8.18238 20.4915 7.50614C20.4915 7.34834 20.4915 7.19053 20.514 7.03273C20.4689 6.78486 20.4915 6.55942 20.4915 6.31145C20.4915 6.19878 20.4915 6.10862 20.4915 5.99585C20.4915 5.86064 20.4915 5.72539 20.4915 5.59015C20.4464 5.22949 20.5365 4.8463 20.4915 4.48564C20.4915 4.01228 20.5365 3.53892 20.5365 3.04302C20.514 2.99794 20.4915 2.90777 20.4689 2.86269C19.9279 2.86269 19.387 2.86269 18.8234 2.86269C18.8234 5.25204 18.8234 7.66394 18.8234 10.0532C17.7865 10.0532 16.7496 10.0532 15.7128 10.0532C15.7128 9.33194 15.7354 8.63318 15.7354 7.91191C14.6082 7.91191 13.4587 7.91191 12.3316 7.91191C11.9034 8.61067 11.4526 9.33194 11.0018 10.0307C9.94226 10.0307 8.88286 10.0307 7.84598 10.0307C7.84598 8.24993 7.84598 6.49177 7.84598 4.71105C7.12471 5.61268 6.42595 6.51429 5.72719 7.4385C5.70457 7.4385 5.63703 7.46101 5.61441 7.46101C4.91565 6.5369 4.17186 5.65777 3.49562 4.73359C3.4731 6.51429 3.49562 8.27254 3.49562 10.0532C2.45874 10.0532 1.39934 10.0532 0.362457 10.0532C0.339843 6.69461 0.339844 3.33606 0.339844 0ZM14.1124 5.02663C14.6534 5.04916 15.1718 5.04916 15.7128 5.02663C15.7128 4.19261 15.7128 3.3586 15.7128 2.52458C15.1493 3.3586 14.6534 4.21515 14.1124 5.02663ZM34.5796 0.0225448C35.639 0.0225448 36.6758 0.0225448 37.7352 0.0225448C37.7352 1.42007 37.7352 2.79507 37.7352 4.19261C36.9463 4.73359 36.1349 5.18441 35.3234 5.68031C35.0754 5.81556 34.85 5.99585 34.5796 6.10862C34.5796 4.0799 34.5796 2.05122 34.5796 0.0225448ZM34.6697 7.21305C35.0079 6.76225 35.5713 6.5369 36.1349 6.49177C36.6984 6.51429 37.2619 6.73973 37.6001 7.19053C38.2087 7.88929 38.0959 9.03895 37.4423 9.67006C37.1492 9.96306 36.766 10.0983 36.3602 10.1885C36.2024 10.1885 36.0447 10.1885 35.8869 10.1885C35.4135 10.0758 34.9402 9.85038 34.6471 9.4221C34.1738 8.8135 34.1513 7.84426 34.6697 7.21305Z" fill="#939291"/>
<path fill-rule="evenodd" clip-rule="evenodd" d="M32.1859 12.055C32.4294 11.9247 32.6917 11.8501 32.9728 11.8501C34.0781 11.8501 35.1835 11.8501 36.2888 11.8501C36.5511 11.8501 36.8134 11.9247 37.0381 12.0737C37.3567 12.2787 37.5253 12.6513 37.5253 13.0239C37.5253 13.4711 37.5253 13.9369 37.5253 14.384C37.5253 14.6822 37.3567 14.9244 37.1693 15.1294C36.27 16.061 35.3146 16.9553 34.4341 17.9056C35.4644 17.9242 36.4949 17.9056 37.5253 17.9242C37.5253 18.5204 37.5253 19.1353 37.5253 19.7315C35.5394 19.7315 33.5535 19.7315 31.5677 19.7315C31.5677 19.3216 31.549 18.9117 31.5864 18.5017C32.9353 17.1044 34.2842 15.6883 35.6331 14.2909C35.6331 14.0115 35.6331 13.7133 35.6331 13.4339C34.9586 13.3965 34.2842 13.4339 33.6285 13.4152C33.6285 13.7506 33.6472 14.0673 33.6097 14.4027C32.9728 14.4214 32.3171 14.384 31.6801 14.3096C31.6801 13.8997 31.6801 13.4898 31.6801 13.0798C31.6801 12.7072 31.83 12.2787 32.1859 12.055ZM0 11.8688C10.0042 11.8688 19.9897 11.8688 29.9939 11.8688C29.9939 14.4958 29.9939 17.123 29.9939 19.7502C19.9897 19.7502 10.0042 19.7502 0 19.7502C0 17.123 0 14.4958 0 11.8688Z" fill="#69BD45"/>
<path fill-rule="evenodd" clip-rule="evenodd" d="M17.113 16.1444C17.4103 16.1444 17.7077 16.1444 18.005 16.1444C18.005 16.38 18.005 16.6155 18.005 16.851C17.7077 16.851 17.4103 16.851 17.113 16.851C17.113 16.6155 17.113 16.38 17.113 16.1444ZM5.75823 14.9485C5.94408 14.9485 6.12993 14.9485 6.31578 14.9485C6.31578 15.5102 6.31578 16.0538 6.31578 16.6155C6.12993 16.6155 5.94408 16.6155 5.75823 16.6155C5.73967 16.0719 5.75823 15.5102 5.75823 14.9485ZM4.0299 14.9485C4.21575 14.9485 4.42016 14.9485 4.60601 14.9485C4.62467 15.5102 4.60601 16.0538 4.60601 16.6155C4.42016 16.6155 4.21575 16.6155 4.0299 16.6155C4.01133 16.0719 4.0299 15.5102 4.0299 14.9485ZM21.2944 14.7855C21.6103 14.7855 21.9076 14.7855 22.2236 14.7855C22.2236 15.4739 22.2236 16.1625 22.2236 16.8692C21.9076 16.8692 21.6103 16.8692 21.2944 16.8692C21.2944 16.1625 21.3129 15.4739 21.2944 14.7855ZM24.8253 13.9519C24.8253 14.6223 24.8253 15.2927 24.8253 15.9451C24.8253 16.1988 24.8067 16.4705 24.6395 16.6698C24.5094 16.8148 24.3236 16.851 24.1377 16.9054C24.2492 17.1772 24.3607 17.449 24.4722 17.7208C24.9554 17.7571 25.4758 17.4127 25.643 16.9597C25.9032 16.2713 25.7917 15.5102 25.8103 14.7855C26.0519 14.7855 26.2749 14.7855 26.5164 14.7855C26.5164 15.7458 26.5164 16.7242 26.5164 17.6846C26.8881 17.6846 27.2598 17.6846 27.6501 17.6846C27.6501 16.4343 27.6501 15.184 27.6501 13.9519C26.7023 13.9519 25.7546 13.9519 24.8253 13.9519ZM20.6997 13.9701C20.3838 14.0063 20.1794 14.2962 20.1794 14.5861C20.1607 15.2927 20.1794 15.9994 20.1794 16.7061C20.1794 16.9417 20.1607 17.1953 20.2723 17.4127C20.3838 17.6121 20.6253 17.7026 20.867 17.7026C21.4431 17.7026 22.0378 17.7026 22.6138 17.7026C22.8369 17.7026 23.0784 17.6664 23.2271 17.5034C23.3757 17.3402 23.3943 17.1047 23.3943 16.9054C23.3943 16.1988 23.3943 15.4739 23.3943 14.7673C23.3943 14.5498 23.3757 14.2962 23.1899 14.1331C22.9669 13.9157 22.6325 13.9701 22.3537 13.9519C21.7961 13.9519 21.2573 13.9157 20.6997 13.9701ZM15.9608 13.9519C15.9794 15.2022 15.9608 16.4525 15.9608 17.6846C16.7413 17.6846 17.5032 17.6846 18.2838 17.6846C18.5254 17.7026 18.7855 17.6664 18.9528 17.4852C19.1944 17.1953 19.1015 16.7967 19.1201 16.4525C19.1015 16.1625 19.1758 15.8182 18.9899 15.5646C18.8228 15.3652 18.544 15.329 18.2838 15.3109C17.8935 15.2927 17.5032 15.3109 17.0944 15.3109C17.0944 15.1297 17.0944 14.9485 17.0944 14.7855C17.7263 14.7855 18.3581 14.7855 18.9899 14.7855C18.9899 14.5136 18.9899 14.2238 18.9899 13.9519C18.005 13.9519 16.9829 13.9519 15.9608 13.9519ZM11.9839 13.9519C11.9839 14.2238 11.9839 14.5136 11.9839 14.7855C12.3183 14.7855 12.6529 14.7855 13.0059 14.7855C13.0245 15.7639 13.0059 16.7242 13.0059 17.7026C13.3776 17.7026 13.7308 17.7026 14.1024 17.7026C14.1024 16.7242 14.1024 15.7639 14.1024 14.7855C14.4369 14.7855 14.7714 14.7855 15.106 14.7855C15.106 14.5136 15.106 14.2238 15.106 13.9519C14.0652 13.9338 13.0245 13.9519 11.9839 13.9519ZM7.96975 13.9519C8.2113 14.7492 8.5272 15.5284 8.78741 16.3256C8.86177 16.5793 9.17767 16.5248 9.38209 16.543C9.17767 16.9235 8.95469 17.2859 8.80597 17.6846C9.19624 17.7026 9.5865 17.6846 9.99533 17.6846C10.4785 16.4886 10.9804 15.3109 11.4635 14.1331C11.4821 14.0788 11.5007 14.0244 11.5192 13.9519C11.129 13.9338 10.7202 13.9519 10.3299 13.9519C10.1255 14.6223 9.9582 15.2927 9.71665 15.9451C9.53081 15.2747 9.36352 14.6042 9.19624 13.9519C8.76884 13.9519 8.37858 13.9338 7.96975 13.9519ZM4.60601 13.8251C4.60601 13.9338 4.60601 14.0606 4.60601 14.1693C4.19718 14.2056 3.76979 14.0969 3.37952 14.2418C3.06362 14.3506 2.9707 14.713 2.9707 15.0029C2.9707 15.5646 2.95203 16.1444 2.9707 16.7061C2.9707 16.996 3.15655 17.304 3.47245 17.3765C3.84415 17.449 4.21575 17.3946 4.58744 17.4127C4.58744 17.5396 4.58744 17.6483 4.58744 17.7751C4.95914 17.7751 5.3494 17.7751 5.7211 17.7751C5.7211 17.6483 5.7211 17.5396 5.7211 17.4127C6.0928 17.3946 6.4644 17.449 6.81753 17.3765C7.11487 17.3222 7.31928 17.0504 7.33785 16.7605C7.33785 16.1263 7.33785 15.4921 7.33785 14.876C7.35641 14.5498 7.11487 14.2418 6.7804 14.1875C6.42727 14.1513 6.07414 14.1693 5.7211 14.1693C5.7211 14.0606 5.7211 13.9338 5.7211 13.8251C5.36797 13.8251 4.99627 13.8251 4.60601 13.8251Z" fill="#FEFEFE"/>
</svg>
