<svg width="38" height="8" viewBox="0 0 38 8" fill="none" xmlns="http://www.w3.org/2000/svg">
<g opacity="0.4">
<path d="M0 0.0634155V0.886915H1.3319V7.92762H2.2289V0.886915H3.5608V0.0634155H0Z" fill="black" fill-opacity="0.8"/>
<path d="M4.09521 0.0634155V7.92762H7.46581V7.10411H4.99221V4.34391H7.13961V3.52042H4.99221V0.886915H7.46581V0.0634155H4.09521Z" fill="black" fill-opacity="0.8"/>
<path d="M8.13623 0.0634155V7.92762H11.3255V7.10411H9.03323V0.0634155H8.13623Z" fill="black" fill-opacity="0.8"/>
<path d="M11.8875 0.0634155V7.92762H15.2579V7.10411H12.7844V4.34391H14.9318V3.52042H12.7844V0.886915H15.2579V0.0634155H11.8875Z" fill="black" fill-opacity="0.8"/>
<path d="M19.7159 5.61089C19.7159 5.97289 19.6797 6.29869 19.6163 6.59729C19.5529 6.88689 19.4441 7.14029 19.2901 7.34839C19.1361 7.55659 18.9277 7.71949 18.6649 7.82809C18.4022 7.93669 18.0669 7.99999 17.6683 7.99999C17.3058 7.99999 16.9978 7.94569 16.735 7.83709C16.4723 7.72849 16.2639 7.58369 16.1008 7.40269C15.9377 7.21269 15.8199 7.00449 15.7474 6.75109C15.6749 6.50679 15.6387 6.24439 15.6387 5.96379L17.188 5.67419C17.2062 5.96379 17.2424 6.17199 17.3149 6.31679C17.3874 6.46159 17.5142 6.53399 17.7136 6.53399C17.8223 6.53399 17.9129 6.50679 17.9763 6.45249C18.0397 6.39819 18.085 6.3349 18.1213 6.2534C18.1575 6.172 18.1756 6.07239 18.1847 5.96379C18.1938 5.85519 18.2028 5.73759 18.2028 5.62899C18.2028 5.47509 18.1938 5.33939 18.1666 5.23079C18.1485 5.12219 18.1032 5.03169 18.0488 4.95929C17.9944 4.88689 17.9129 4.81449 17.8132 4.76019C17.7136 4.70589 17.5958 4.64249 17.4508 4.58829C17.0703 4.43439 16.7531 4.26249 16.5266 4.09959C16.291 3.92759 16.1098 3.74659 15.9921 3.55659C15.8652 3.36649 15.7837 3.15839 15.7474 2.95019C15.7112 2.73299 15.6931 2.49779 15.6931 2.24439C15.6931 1.91859 15.7293 1.61989 15.8018 1.34839C15.8743 1.07689 15.9921 0.841594 16.1551 0.642494C16.3182 0.443494 16.5266 0.289594 16.7894 0.180994C17.0521 0.072394 17.3602 0.00909424 17.7317 0.00909424C18.1213 0.00909424 18.4475 0.0723938 18.7012 0.199094C18.9549 0.325794 19.1632 0.479694 19.3082 0.669694C19.4532 0.859694 19.5619 1.07689 19.6163 1.31219C19.6797 1.54749 19.7069 1.77379 19.7069 1.99099L18.1938 2.31679C18.1938 2.20819 18.1847 2.09959 18.1756 1.99999C18.1666 1.90049 18.1394 1.80999 18.1032 1.73759C18.0669 1.65609 18.0126 1.59279 17.9491 1.54749C17.8857 1.50229 17.7951 1.48419 17.6864 1.48419C17.5776 1.48419 17.4961 1.51129 17.4417 1.55659C17.3783 1.60179 17.333 1.66519 17.3058 1.73759C17.2696 1.80999 17.2515 1.89139 17.2424 1.98189C17.2333 2.07239 17.2243 2.16289 17.2243 2.24439C17.2243 2.35299 17.2333 2.44349 17.2424 2.52489C17.2605 2.60629 17.2968 2.68779 17.3511 2.76019C17.4146 2.83259 17.4961 2.90499 17.6139 2.97739C17.7317 3.04979 17.8948 3.12219 18.1032 3.21269C18.4656 3.35749 18.7465 3.50229 18.9549 3.66519C19.1632 3.81899 19.3263 3.99999 19.4351 4.18099C19.5438 4.37109 19.6163 4.57919 19.6525 4.82349C19.7069 5.04069 19.7159 5.31219 19.7159 5.61089Z" fill="black" fill-opacity="0.8"/>
<path d="M22.3072 0.0634155C22.6424 0.0634155 22.9414 0.099615 23.2041 0.181015C23.476 0.262515 23.7025 0.389215 23.8928 0.579215C24.083 0.760215 24.2371 1.01361 24.3367 1.32131C24.4454 1.63801 24.4907 2.02722 24.4907 2.48872C24.4907 3.29422 24.3186 3.91862 23.9834 4.37112C23.6481 4.82362 23.0954 5.04082 22.3343 5.04082H21.9719V7.91862H20.4316V0.0634155H22.3072ZM21.981 1.52942V3.57472H22.2437C22.3434 3.57472 22.434 3.56562 22.5337 3.53852C22.6243 3.51132 22.7149 3.45712 22.7874 3.37562C22.8598 3.29422 22.9233 3.18562 22.9686 3.04082C23.0139 2.89602 23.032 2.71502 23.032 2.47972C23.032 2.13582 22.9595 1.88242 22.8236 1.73762C22.6877 1.59282 22.4974 1.52042 22.2618 1.52042L21.981 1.52942Z" fill="black" fill-opacity="0.8"/>
<path d="M29.0299 6.009C29.0299 6.6878 28.8578 7.1855 28.5225 7.5113C28.1873 7.8371 27.6799 8 27.0185 8C25.6866 8 25.0161 7.3394 25.0161 6.009V1.9729C25.0161 1.2941 25.1973 0.7964 25.5506 0.4796C25.904 0.1629 26.3933 0 27.0185 0C27.7071 0 28.2145 0.1629 28.5406 0.4796C28.8668 0.7964 29.0299 1.3032 29.0299 1.9729V6.009ZM27.4715 1.9186C27.4715 1.7466 27.4262 1.6199 27.3446 1.5475C27.254 1.4751 27.1544 1.4389 27.0185 1.4389C26.8916 1.4389 26.7829 1.4751 26.6923 1.5475C26.6017 1.6199 26.5564 1.7466 26.5564 1.9186V6.0724C26.5564 6.2534 26.6017 6.3801 26.6923 6.4525C26.7829 6.5249 26.8916 6.5611 27.0185 6.5611C27.1453 6.5611 27.254 6.5249 27.3446 6.4525C27.4352 6.3801 27.4715 6.2534 27.4715 6.0724V1.9186Z" fill="black" fill-opacity="0.8"/>
<path d="M31.5939 0.0634155C31.9201 0.0634155 32.2191 0.099615 32.4909 0.181015C32.7627 0.262515 32.9983 0.389215 33.1886 0.579215C33.3879 0.760215 33.5329 1.00462 33.6507 1.30322C33.7594 1.60181 33.8138 1.96382 33.8138 2.38922C33.8138 2.92312 33.7413 3.35752 33.5963 3.70142C33.4514 4.03622 33.2339 4.30771 32.944 4.51591L34.0765 7.92762H32.5L31.5758 4.86882H31.2678V7.92762H29.7275V0.0634155H31.5939ZM31.2678 1.52942V3.38472H31.5033C31.6121 3.38472 31.7208 3.37562 31.8205 3.34852C31.9201 3.32132 32.0107 3.26702 32.0832 3.19462C32.1648 3.12222 32.2282 3.02272 32.2735 2.89602C32.3188 2.76932 32.3369 2.60642 32.3369 2.40732C32.3369 2.10862 32.2644 1.88242 32.1194 1.74662C31.9745 1.61092 31.7842 1.53852 31.5486 1.53852H31.2678V1.52942Z" fill="black" fill-opacity="0.8"/>
<path d="M36.7949 1.52942V7.92762H35.2546V1.52942H34.0405V0.0634155H37.9999V1.52942H36.7949Z" fill="black" fill-opacity="0.8"/>
</g>
</svg>
