<svg width="32" height="32" viewBox="0 0 32 32" fill="none" xmlns="http://www.w3.org/2000/svg">
<path fill-rule="evenodd" clip-rule="evenodd" d="M16 32C24.8366 32 32 24.8366 32 16C32 7.16344 24.8366 0 16 0C7.16344 0 0 7.16344 0 16C0 24.8366 7.16344 32 16 32Z" fill="url(#paint0_linear)"/>
<path d="M11.2341 21H9.47906V10.995H16.3341V12.54H11.2341V15.135H16.2291V16.68H11.2341V21ZM24.0669 21H17.9019V10.995H19.6569V19.455H24.0669V21Z" fill="white"/>
<path d="M27 9C29.2091 9 31 7.20914 31 5C31 2.79086 29.2091 1 27 1C24.7909 1 23 2.79086 23 5C23 7.20914 24.7909 9 27 9Z" stroke="#F0F1F2" stroke-width="2"/>
<path fill-rule="evenodd" clip-rule="evenodd" d="M27 8C28.6569 8 30 6.65685 30 5C30 3.34315 28.6569 2 27 2C25.3431 2 24 3.34315 24 5C24 6.65685 25.3431 8 27 8Z" fill="#F64747"/>
<mask id="mask0" mask-type="alpha" maskUnits="userSpaceOnUse" x="24" y="2" width="6" height="6">
<path fill-rule="evenodd" clip-rule="evenodd" d="M27 8C28.6569 8 30 6.65685 30 5C30 3.34315 28.6569 2 27 2C25.3431 2 24 3.34315 24 5C24 6.65685 25.3431 8 27 8Z" fill="white"/>
</mask>
<g mask="url(#mask0)">
</g>
<defs>
<linearGradient id="paint0_linear" x1="-16.16" y1="16.32" x2="16.48" y2="48.64" gradientUnits="userSpaceOnUse">
<stop stop-color="#3023AE"/>
<stop offset="1" stop-color="#C86DD7"/>
</linearGradient>
</defs>
</svg>
